<?xml version="1.0" encoding="UTF-8"?>
<svg width="512pt" height="512pt" version="1.1" viewBox="0 0 512 512" xmlns="http://www.w3.org/2000/svg">
 <path d="m405.34 106.66c-26.184-26.355-58.855-45.336-94.723-55.031-35.863-9.6914-73.648-9.7539-109.54-0.17969-35.898 9.5781-68.633 28.453-94.902 54.723s-45.145 59.004-54.723 94.902c-9.5742 35.895-9.5117 73.68 0.17969 109.54 9.6953 35.867 28.676 68.539 55.031 94.723 26.184 26.355 58.855 45.336 94.723 55.031 35.863 9.6914 73.648 9.7539 109.54 0.17969 35.898-9.5781 68.633-28.453 94.902-54.723s45.145-59.004 54.723-94.902c9.5742-35.895 9.5117-73.68-0.17969-109.54-9.6953-35.867-28.676-68.539-55.031-94.723zm16.895 53.34h-12.727c-1.7734-0.003906-3.4727-0.71094-4.7305-1.9609l-1.9766-1.9766c-4.8633-4.832-11.434-7.5586-18.289-7.582h-12.441c-4.0234 0.003906-7.9922 0.9375-11.59 2.7344l-16.133 8.0742h-0.003906c-0.93359 0.46875-1.9688 0.71094-3.0156 0.71094h-2.8945c-3.6953-0.003906-6.6914-2.9961-6.6953-6.6914 0.003907-1.7734 0.70703-3.4766 1.9609-4.7305l16.387-16.387c0.50391-0.50391 1.0859-0.92969 1.7266-1.2539l17.234-8.6133-0.003906 0.003906c0.93359-0.46484 1.9609-0.70703 3-0.70703h20.922c11.32 11.52 21.148 24.414 29.262 38.379zm-265.66-68.203 22.926 15.922h0.003906c1.0977 0.76562 1.9883 1.793 2.5859 2.9922l2.7305 5.4492-0.003907-0.003906c2.2422 4.5312 5.7109 8.3398 10.008 11 4.2969 2.6562 9.2539 4.0547 14.309 4.0391h19.543c4.4102 0.003907 7.9805 3.5781 7.9883 7.9883v0.34766c0.007812 3.0273-1.707 5.793-4.418 7.1367l-46.906 23.453c-1.0078 0.50391-1.9844 1.0703-2.9219 1.6953l-24.008 16.012c-3.9258 2.6328-7.1016 6.2383-9.2188 10.465l-3.5859 7.168h0.003906c-3.832 7.6484-3.832 16.656 0 24.305 1.5312 3.0742 0.92578 6.7891-1.5039 9.2148l-0.51172 0.51172h-0.003906c-2.582 2.5859-6.5938 3.082-9.7266 1.1992l-30.652-18.379v-0.003906c-1.6328-0.98047-2.8633-2.5156-3.4609-4.3242l-7.5938-22.621c-1.3086-3.918-4.9766-6.5625-9.1094-6.5625-2.2109 0.066407-4.4102-0.41016-6.3945-1.3867 15.344-39.832 43.449-73.453 79.922-95.617zm-92.578 164.2c-0.015625-16.961 2.2227-33.852 6.6562-50.223 1.6992 0.66797 3.457 1.1797 5.2461 1.5352l5.582 16.738c2.0508 6.1641 6.2344 11.387 11.801 14.73l30.645 18.375c5.1992 3.1289 11.293 4.4258 17.312 3.6836 6.0195-0.74219 11.617-3.4805 15.902-7.7773l0.51172-0.51172c4.043-4.0312 6.7109-9.2344 7.6328-14.867 0.91797-5.6328 0.039063-11.414-2.5156-16.52-1.1406-2.2539-1.1406-4.9141 0-7.168l3.5859-7.1406v-0.003907c0.62891-1.2383 1.5664-2.2969 2.7227-3.0703l23.996-16.004h0.003906c0.27344-0.19141 0.5625-0.35938 0.85938-0.51172l46.895-23.426c4.5273-2.2422 8.3398-5.707 10.996-10.008 2.6562-4.2969 4.0586-9.2539 4.0391-14.309v-0.34766c-0.007813-7.207-2.875-14.117-7.9727-19.215-5.0938-5.0977-12.004-7.9648-19.215-7.9727h-19.547c-3.0312 0.011719-5.8008-1.7031-7.1406-4.4219l-2.7344-5.457c-2.0391-4.0664-5.0625-7.5586-8.7969-10.16l-14.848-10.297c31.422-14.508 66.188-20.238 100.6-16.578 34.418 3.6562 67.203 16.562 94.875 37.352-3.7031 0.13281-7.332 1.0547-10.645 2.7031l-17.258 8.6211h-0.003906c-2.4766 1.2461-4.7344 2.8789-6.6953 4.8398l-16.383 16.383c-4.8555 4.8555-7.5859 11.441-7.5859 18.309 0.003906 6.8711 2.7305 13.461 7.5898 18.324 4.8594 4.8594 11.445 7.5898 18.32 7.5938h2.8984-0.003906c4.0234-0.003907 7.9922-0.94141 11.594-2.7344l16.145-8.0781c0.92969-0.46484 1.957-0.70703 3-0.70703h12.445c1.7734 0.003906 3.4727 0.71094 4.7305 1.9609l1.9766 1.9766c4.8633 4.8359 11.434 7.5586 18.289 7.582h22.441c2.8828 6.5742 5.3945 13.305 7.5195 20.164h-36.48c-1.0312-0.007812-2.0586-0.17969-3.0391-0.51172l-20.559-6.8516c-5.1953-1.7305-10.773-1.9414-16.086-0.61328l-29.77 7.4453h0.003906c-3.1953 0.79688-6.2305 2.1406-8.9727 3.9648l-17.48 11.652v0.003906c-8.0234 5.332-12.84 14.328-12.828 23.965v15.406c0 3.0977 0.49609 6.1719 1.4766 9.1094l4.2344 12.707c1.9062 5.7383 5.5742 10.734 10.48 14.27 4.9062 3.5391 10.805 5.4375 16.852 5.4336h0.82422c4.4688-0.003906 8.8789-1.0469 12.879-3.043l6.5625-3.2812c2.9805-1.4961 6.5234-1.3398 9.3594 0.41797 2.832 1.7539 4.5547 4.8555 4.5469 8.1875v2.8008c0 4.4688 1.043 8.8789 3.0391 12.879l15.156 30.316v-0.003906c0.66797 1.3281 1.0195 2.793 1.0234 4.2773v21.152-0.003906c0 3.0977 0.5 6.1758 1.4805 9.1133 0.0625 0.1875 0.12891 0.375 0.20312 0.55859l6.4062 15.871v0.003906c-36.402 34.938-85.102 54.129-135.55 53.426-50.453-0.69922-98.598-21.246-134.01-57.184-35.418-35.938-55.254-84.375-55.219-134.83zm339.22 123.1-2.9297-7.2539 0.003907-0.003906c-0.28125-0.90625-0.42188-1.8516-0.42188-2.8047v-21.152c0-4.4688-1.043-8.875-3.0391-12.875l-15.156-30.316c-0.66797-1.3242-1.0195-2.7891-1.0234-4.2734v-2.7969c0.015625-5.3477-1.4648-10.594-4.2773-15.145-2.8086-4.5508-6.8359-8.2266-11.625-10.609-8.1094-4.0508-17.648-4.0508-25.754 0l-6.5781 3.293h-0.003907c-1.3242 0.66797-2.7891 1.0195-4.2734 1.0234h-0.82422c-4.1367 0.007812-7.8086-2.6406-9.1133-6.5625l-4.2344-12.715c-0.33203-0.97656-0.50781-2-0.51172-3.0352v-15.441c-0.003906-3.2109 1.6055-6.2109 4.2812-7.9883l17.496-11.664h-0.003906c0.91406-0.60547 1.9219-1.0508 2.9883-1.3125l29.742-7.4375v-0.003906c1.7734-0.44141 3.6367-0.37109 5.375 0.20312l20.547 6.8594c2.9375 0.98047 6.0156 1.4766 9.1133 1.4766h41.332c5.5898 28.133 4.7969 57.156-2.3164 84.938-7.1133 27.785-20.367 53.617-38.785 75.602z" fill="#627fb8"/>
 <path d="m272.8 292.13-25.281-12.641h-0.003907c-0.77734-0.38672-1.2617-1.1836-1.2539-2.0508-0.015625-5.6836-2.2812-11.133-6.3047-15.148-4.0234-4.0195-9.4727-6.2812-15.156-6.293h-2.418c-0.60156-0.003906-1.1758-0.24219-1.6016-0.66406l-2.6484-2.6484c-4.0156-4.0391-9.4844-6.3047-15.18-6.2891h-16.555c-3.9883-0.011719-7.9023 1.0938-11.297 3.1914-3.3906 2.0977-6.1289 5.1055-7.9023 8.6797l-4.5508 9.1016c-0.22266 0.44531-0.58203 0.80469-1.0234 1.0234l-9.1016 4.5508h-0.003906c-3.5742 1.7734-6.5781 4.5117-8.6758 7.9062-2.0977 3.3945-3.2031 7.3047-3.1914 11.297v8.2734c-0.011719 4.2344 1.2383 8.3828 3.5859 11.91l15.5 23.172c2.0742 3.1055 4.9219 5.6172 8.2617 7.2891l9.8242 4.9102c0.77734 0.38672 1.2656 1.1836 1.2539 2.0508v37.887c0.003907 3.332 0.78125 6.6172 2.2695 9.6016l7.4727 14.918c1.0312 2.0625 2.3906 3.9453 4.0195 5.5742l11.777 11.777c3.1836 3.1914 7.293 5.293 11.742 6.0156 4.4453 0.72266 9.0078 0.023437 13.039-1.9961l6.3555-3.1797h-0.003906c5.9414-2.9453 10.176-8.4844 11.453-14.992l7.7695-38.754c0.085938-0.4375 0.30078-0.83984 0.61719-1.1562l14.68-14.68c2.3516-2.3594 4.125-5.2305 5.1836-8.3906l8.1055-24.309c0.73047-2.1914 1.1055-4.4844 1.1055-6.7969v-9.9414c0.011719-3.9883-1.0898-7.9023-3.1875-11.297-2.0977-3.3906-5.1016-6.1289-8.6758-7.9023zm-7.332 29.141c0 0.24609-0.039062 0.48828-0.11719 0.71875l-8.1055 24.316v-0.003906c-0.11328 0.33594-0.30078 0.64062-0.54688 0.88672l-14.68 14.68c-3.0039 2.9961-5.0469 6.8125-5.875 10.973l-7.75 38.805c-0.13672 0.6875-0.58203 1.2695-1.207 1.582l-6.3594 3.1797c-0.875 0.4375-1.9297 0.26562-2.6172-0.42578l-11.777-11.777c-0.17188-0.17188-0.31641-0.37109-0.42578-0.58594l-7.5-15.012c-0.15625-0.32031-0.23828-0.67188-0.23828-1.0234v-37.891c0.011718-3.9883-1.0938-7.9023-3.1914-11.297-2.0977-3.3945-5.1055-6.1289-8.6797-7.9023l-9.8203-4.8633c-0.35156-0.17578-0.64844-0.44141-0.86719-0.76953l-15.457-23.199c-0.25-0.37109-0.38281-0.80859-0.37891-1.2578v-8.2734c-0.011718-0.86719 0.47656-1.6641 1.2539-2.0508l9.1016-4.5508c4.1406-2.0781 7.5-5.4297 9.5898-9.5625l4.5508-9.1016v-0.003907c0.38672-0.77734 1.1836-1.2656 2.0508-1.2539h16.531c0.60156 0.003906 1.1758 0.24219 1.6016 0.66797l2.6484 2.6484v-0.003906c4.0156 4.0391 9.4844 6.3047 15.18 6.2891h2.418c0.60156 0 1.1758 0.23828 1.6016 0.66406s0.66406 1 0.66406 1.6016c-0.011718 3.9922 1.0938 7.9062 3.1914 11.297 2.0977 3.3945 5.1055 6.1328 8.6797 7.9062l25.281 12.641c0.77734 0.38281 1.2656 1.1797 1.2539 2.0469z" fill="#627fb8"/>
</svg>
