<?xml version="1.0" encoding="UTF-8"?>
<svg width="512pt" height="512pt" version="1.1" viewBox="0 0 512 512" xmlns="http://www.w3.org/2000/svg">
 <path d="m256 46.398c-84.602 0-153.5 68.898-153.5 153.5 0 46 40.301 118.2 64.301 157.1 28.102 45.602 67.801 99.602 82.801 107.2 2.1016 1.1016 4 1.5 5.5 1.5 2.6016 0 4.3984-1 5.5-1.8008 7.1992-5.3008 44.602-51.602 78.699-103.7 31.898-48.602 70-116 70-160.3 0.19922-84.699-68.699-153.5-153.3-153.5zm0 227.6c-39.898 0-72.301-32.398-72.301-72.301 0-39.898 32.398-72.301 72.301-72.301 39.898 0 72.301 32.398 72.301 72.301 0 40-32.402 72.301-72.301 72.301z" fill="#ff001b"/>
</svg>
